<?xml version="1.0" encoding="UTF-8"?>
<svg width="420px" height="419px" viewBox="0 0 420 419" version="1.1" xmlns="http://www.w3.org/2000/svg" xmlns:xlink="http://www.w3.org/1999/xlink">
    <!-- Generator: Sketch 52.6 (67491) - http://www.bohemiancoding.com/sketch -->
    <title>earth</title>
    <desc>Created with Sketch.</desc>
    <defs>
        <radialGradient cx="42.1699832%" cy="39.8752803%" fx="42.1699832%" fy="39.8752803%" r="48.1665003%" gradientTransform="translate(0.421700,0.398753),rotate(143.869832),scale(1.000000,0.980170),translate(-0.421700,-0.398753)" id="radialGradient-1">
            <stop stop-color="#36A6F3" offset="0%"></stop>
            <stop stop-color="#1D619F" offset="100%"></stop>
        </radialGradient>
        <path d="M346.109,209.25 C346.109,284.42 285.17,345.359 209.999,345.359 C134.829,345.359 73.891,284.42 73.891,209.25 C73.891,134.079 134.829,73.141 209.999,73.141 C285.17,73.141 346.109,134.079 346.109,209.25" id="path-2"></path>
        <radialGradient cx="38.7549064%" cy="28.7999018%" fx="38.7549064%" fy="28.7999018%" r="86.9195526%" gradientTransform="translate(0.387549,0.287999),scale(1.000000,0.933855),rotate(90.000000),translate(-0.387549,-0.287999)" id="radialGradient-4">
            <stop stop-color="#B4EC51" offset="0%"></stop>
            <stop stop-color="#429321" offset="100%"></stop>
        </radialGradient>
    </defs>
    <g id="Page-1" stroke="none" stroke-width="1" fill="none" fill-rule="evenodd">
        <g id="test-task" transform="translate(-510.000000, -355.000000)">
            <g id="earth" transform="translate(510.000000, 355.000000)">
                <path d="M419.109,209.25 C419.109,324.736291 325.486291,418.359 209.998464,418.359 C94.512173,418.359 0.891,324.736291 0.891,209.25 C0.891,93.762173 94.512173,0.141 209.998464,0.141 C325.486291,0.141 419.109,93.762173 419.109,209.25" id="Fill-37-Copy-3" fill="#FFFFFF" opacity="0.049999997"></path>
                <path d="M394.109,209.25 C394.109,310.929342 311.679342,393.359 209.998647,393.359 C108.319306,393.359 25.891,310.929342 25.891,209.25 C25.891,107.569306 108.319306,25.141 209.998647,25.141 C311.679342,25.141 394.109,107.569306 394.109,209.25" id="Fill-37-Copy-2" fill="#FFFFFF" opacity="0.049999997"></path>
                <path d="M368.109,209.25 C368.109,296.570115 297.320115,367.359 209.998838,367.359 C122.678723,367.359 51.891,296.570115 51.891,209.25 C51.891,121.928723 122.678723,51.141 209.998838,51.141 C297.320115,51.141 368.109,121.928723 368.109,209.25" id="Fill-37" fill="#FFFFFF" opacity="0.049999997"></path>
                <mask id="mask-3" fill="white">
                    <use xlink:href="#path-2"></use>
                </mask>
                <use id="Mask" fill="url(#radialGradient-1)" xlink:href="#path-2"></use>
                <path d="M161.23,309.18 C160.038,312.033 158.764,315.073 155.318,315.469 C147.061,316.416 144.907,304.876 143.6,299.131 C142.451,294.081 141.378,288.94 139.048,284.273 C137.623,281.419 135.822,278.371 135.103,275.23 C133.487,268.176 137.357,260.673 135.266,253.885 C133.07,246.756 125.538,243.585 122.713,236.93 C120.022,230.587 119.86,223.805 120.468,217.022 C120.811,213.197 121.489,209.156 121.096,205.313 C120.654,200.976 118.296,199.811 115.924,196.713 C111.989,191.576 112.771,183.771 110.722,177.777 C108.406,171.003 101.871,167.027 99.647,160.282 C98.501,156.802 99.594,153.11 98.655,149.77 C97.829,146.831 96.012,145.36 93.474,143.811 C88.284,140.645 82.17,136.825 80.751,130.377 C79.462,124.519 81.189,119.409 82.676,113.779 C86.106,100.787 92.974,91.745 105.438,86.465 C113.275,83.144 121.434,81.04 129.386,78.09 C137.418,75.111 145.21,71.561 153.173,68.409 C159.947,65.728 165.843,63.388 172.933,66.343 C175.289,67.325 177.744,68.667 180.283,69.102 C181.139,69.249 181.901,69.102 182.634,68.857 C183.507,68.091 184.686,67.598 186.184,67.587 C186.416,67.584 186.651,67.583 186.885,67.581 C190.495,67.554 192.289,70.352 192.27,73.15 C192.271,73.318 192.265,73.486 192.253,73.652 C193.416,75.631 193.931,77.716 194.418,80.477 C195.049,84.059 196.939,86.333 195.276,89.821 C194.073,92.345 190.346,91.829 188.448,90.656 C185.755,88.992 184.57,88.777 181.416,88.908 C179.574,88.983 178.025,88.836 176.278,88.292 C173.378,87.387 171.01,85.216 168.301,88.291 C166.548,90.278 165.235,92.634 164.421,95.16 C163.232,98.844 161.734,103.656 167.223,101.637 C173.055,99.494 181.401,96.552 187.643,98.314 C190.867,99.224 193.898,101.238 194.582,104.752 C195.063,107.223 195.74,111.174 193.682,113.198 C189.031,117.767 180.287,117.107 174.315,118.307 C168.831,119.408 166.961,122.002 164.557,126.925 C162.912,130.292 160.563,132.906 156.638,133.331 C153.699,133.647 150.099,133.073 148.023,135.702 C146.791,137.262 145.849,139.077 144.916,140.825 C143.071,144.286 141.291,147.791 138.321,150.434 C136.65,151.921 134.717,151.741 133.032,150.434 C130.542,148.503 129.27,145.709 127.012,143.595 C125.053,141.763 122.994,141.353 120.399,141.698 C118.598,141.938 116.905,142.429 118.005,144.444 C121.402,150.662 118.424,158.016 122.69,163.624 C124.862,166.481 127.285,169.641 128.185,173.193 C128.412,174.091 129.867,181.49 130.456,181.338 C137.52,179.517 141.548,177.737 147.665,182.94 C149.369,184.388 149.624,186.207 149.028,187.789 C149.919,188.756 150.681,189.876 151.241,191.236 C151.946,192.951 152.566,195.814 154.095,197.022 C155.231,197.918 158.03,196.577 159.346,196.562 C164.02,196.508 168.215,197.94 172.171,200.406 C176.858,203.327 180.931,207.721 185.846,210.148 C193.894,214.122 204.228,216.818 208.562,225.541 C211.977,232.414 208.604,244.787 202.343,249.069 C199.551,250.978 197.349,252.123 196.32,255.591 C195.635,257.9 194.863,260.008 193.524,262.022 C191.22,265.488 188.286,266.064 184.409,266.567 C177.7,267.438 174.795,274.536 172.563,280.147 C170.46,285.432 168.752,290.857 166.722,296.169 C165.038,300.572 163.044,304.836 161.23,309.18 Z M349.261,181.136 C349.938,188.935 350.056,196.894 348.921,204.656 C347.834,212.08 345.853,220.029 343.273,227.103 C342.212,230.011 341.015,232.745 339.267,235.309 C337.352,238.118 334.352,239.748 332.235,242.336 C329.503,245.679 329.977,252.167 328.985,256.311 C328.045,260.244 327.051,264.17 325.9,268.05 C324,274.456 321.546,280.215 317.379,285.466 C314.53,289.055 312.082,293.653 307.836,295.794 C303.773,297.842 298.998,295.776 297.005,291.886 C294.77,287.523 295.856,282.101 296.477,277.487 C297.381,270.767 294.926,263.982 295.764,257.221 C296.29,252.98 297.489,248.893 298.084,244.677 C298.655,240.612 297.628,237.773 296.045,234.17 C293.019,227.275 297.618,221.85 297.049,215.038 C296.682,210.654 295.987,200.516 289.12,203.092 C282.962,205.402 275.514,206.626 269.023,204.988 C263.819,203.674 256.825,202.548 254.716,196.972 C253.786,194.514 254.966,190.428 255.478,188.033 C256.351,183.96 258.289,178.832 257.138,174.668 C255.153,167.488 256.025,163.856 261.968,159.3 C264.214,157.579 264.721,153.471 266.096,151.07 C267.165,149.207 268.385,147.594 270.063,146.239 C274.323,142.8 283.011,141.02 288.32,141.55 C293.579,142.074 297.399,145.653 302.365,147.169 C303.905,147.64 310.59,149.998 311.604,147.733 C312.686,145.321 309.581,142.17 308.023,140.724 C306.357,139.175 303.375,136.185 300.785,137.107 C298.145,138.049 295.752,138.812 292.937,138.986 C289.624,139.192 287.201,136.476 284.119,135.958 C280.873,135.411 278.226,137.136 275.382,138.398 C271.842,139.969 266.606,140.991 263.481,137.913 C257.965,132.48 261.677,121.375 269.353,120.233 C271.825,119.865 274.386,119.952 276.834,119.49 C277.643,119.338 278.68,119.219 279.475,118.834 L279.323,118.765 C278.958,118.629 278.594,118.494 278.228,118.359 C276.495,117.716 274.309,116.563 273.467,114.788 C272.393,112.514 272.355,108.766 270.906,106.866 C267.976,103.017 261.618,104.117 258.174,100.616 C255.242,97.636 253.58,92.465 255.486,88.488 C257.436,84.42 262.379,83.984 266.275,85.325 C268.225,85.996 271.06,87.544 273.168,87.29 C276.447,86.894 279.272,85.679 282.548,85.788 C282.995,85.453 283.519,85.171 284.13,84.964 C289.147,83.263 296.842,87.387 301.409,89.372 C309.492,92.885 315.899,98.266 321.937,104.57 C328.449,111.369 333.796,118.523 336.263,127.744 C338.84,137.374 341.826,146.844 343.656,156.664 C345.201,164.954 348.527,172.675 349.261,181.136 Z M203.948,97.848 C199.971,95.519 201.687,91.774 202.674,88.309 C203.696,84.721 200.789,81.919 203.297,78.993 L203.304,78.972 C205.892,72.935 217.894,74.79 222.712,76.016 C225.61,76.752 230.065,78.214 230.961,81.47 C231.993,85.22 227.605,86.35 224.905,86.659 C221.629,87.033 220.955,89.934 219.014,92.132 C217.591,93.743 216.101,95.276 214.279,96.448 C211.301,98.368 207.323,99.826 203.948,97.848 Z M258.068,321.986 C266.893,325.311 261.48,337.453 256.301,341.564 C249.46,346.996 240.622,349.702 232.003,350.682 C225.671,351.399 219.308,351.341 213.006,352.349 C207.293,353.26 201.429,353.856 195.644,353.339 C189.888,352.825 184.526,351.302 178.886,350.237 C174.333,349.379 170.426,346.821 165.97,346.069 C163.85,345.712 162.906,343.947 162.927,342.129 C159.94,339.075 157.876,334.446 157.566,330.737 C157.433,329.147 158.945,328.02 160.369,327.934 C169.33,327.394 168.723,313.858 177.872,313.858 C182.059,313.858 182.509,318.705 185.666,320.272 C187.414,321.139 189.263,321.076 191.134,321.013 C193.187,320.944 195.267,320.875 197.267,322.034 C208.965,328.814 219.06,321.664 231.081,321.182 C233.829,321.071 236.583,321.342 239.333,321.614 C242.388,321.915 245.44,322.217 248.476,321.994 C251.676,321.759 254.951,320.811 258.068,321.986 Z" id="Combined-Shape" fill="url(#radialGradient-4)" mask="url(#mask-3)"></path>
                <path d="M344.218,179.109 C344.218,259.80178 278.80178,325.218 198.107927,325.218 C117.415147,325.218 52,259.80178 52,179.109 C52,98.415147 117.415147,33 198.107927,33 C278.80178,33 344.218,98.415147 344.218,179.109" id="Mask" fill="#2876DD" opacity="0.200000003" mask="url(#mask-3)"></path>
                <path d="M315.218,161.109 C315.218,236.279 254.279,297.218 179.108,297.218 C103.938,297.218 43,236.279 43,161.109 C43,85.938 103.938,25 179.108,25 C254.279,25 315.218,85.938 315.218,161.109" id="Mask-Copy" fill="#B8F4FC" opacity="0.100000001" mask="url(#mask-3)"></path>
                <path d="M288.218,107.109 C288.218,182.279 227.279,243.218 152.108,243.218 C76.938,243.218 16,182.279 16,107.109 C16,31.938 76.938,-29 152.108,-29 C227.279,-29 288.218,31.938 288.218,107.109" id="Mask-Copy-3" fill="#B8F4FC" opacity="0.100000001" mask="url(#mask-3)"></path>
                <path d="M254.218,65.109 C254.218,140.279 193.279,201.218 118.108,201.218 C42.938,201.218 -18,140.279 -18,65.109 C-18,-10.062 42.938,-71 118.108,-71 C193.279,-71 254.218,-10.062 254.218,65.109" id="Mask-Copy-2" fill="#68DFFF" opacity="0.100000001" mask="url(#mask-3)"></path>
            </g>
        </g>
    </g>
</svg>