<?xml version="1.0" encoding="UTF-8"?>
<svg width="81px" height="81px" viewBox="0 0 81 81" version="1.1" xmlns="http://www.w3.org/2000/svg" xmlns:xlink="http://www.w3.org/1999/xlink">
    <!-- Generator: Sketch 52.6 (67491) - http://www.bohemiancoding.com/sketch -->
    <title>moon</title>
    <desc>Created with Sketch.</desc>
    <defs>
        <polygon id="path-1" points="0.000127559055 0.556986614 80.4432047 0.556986614 80.4432047 80.9995535 0.000127559055 80.9995535"></polygon>
        <polygon id="path-3" points="0.548972807 0.599316935 72.4409737 0.599316935 72.4409737 78.9998089 0.548972807 78.9998089"></polygon>
    </defs>
    <g id="Page-1" stroke="none" stroke-width="1" fill="none" fill-rule="evenodd">
        <g id="test-task" transform="translate(-1117.000000, -107.000000)">
            <g id="moon" transform="translate(1117.000000, 107.000000)">
                <g id="Group-3">
                    <mask id="mask-2" fill="white">
                        <use xlink:href="#path-1"></use>
                    </mask>
                    <g id="Clip-2"></g>
                    <path d="M80.4433323,40.7782701 C80.4433323,62.9920417 62.4358205,80.9995535 40.2220488,80.9995535 C18.0076394,80.9995535 0.000127559055,62.9920417 0.000127559055,40.7782701 C0.000127559055,18.5638606 18.0076394,0.556986614 40.2220488,0.556986614 C62.4358205,0.556986614 80.4433323,18.5638606 80.4433323,40.7782701" id="Fill-1" fill="#D1F4FF" mask="url(#mask-2)"></path>
                </g>
                <g id="Group-6" transform="translate(8.000000, 2.000000)">
                    <mask id="mask-4" fill="white">
                        <use xlink:href="#path-3"></use>
                    </mask>
                    <g id="Clip-5"></g>
                    <path d="M44.5276307,0.599316935 C50.0781921,7.48059919 53.4009728,16.2171073 53.4009728,25.7264137 C53.4009728,47.9158573 35.3213061,65.9036476 13.0178851,65.9036476 C8.66606053,65.9036476 4.47624474,65.2162202 0.548972807,63.9490347 C7.95014825,73.1238653 19.3138149,78.9998089 32.0580781,78.9998089 C54.3608588,78.9998089 72.4411658,61.0120185 72.4411658,38.822575 C72.4411658,20.962204 60.7272272,5.82733306 44.5276307,0.599316935" id="Fill-4" fill="#C2E6F1" mask="url(#mask-4)"></path>
                </g>
                <path d="M51,35.4996868 C51,39.6416788 47.6423053,43 43.4996868,43 C39.3576947,43 36,39.6416788 36,35.4996868 C36,31.3576947 39.3576947,28 43.4996868,28 C47.6423053,28 51,31.3576947 51,35.4996868" id="Fill-7" fill="#A6CDDD"></path>
                <path d="M45.5153363,30.0067421 C47.1922272,30.0067421 48.7410576,30.5569153 50,31.4872316 C48.6359334,29.3873932 46.2926185,28 43.628197,28 C39.4155821,28 36,31.4652505 36,35.740568 C36,38.3136458 37.2391918,40.5932117 39.1428961,42 C38.3503231,40.7794043 37.8871393,39.3183099 37.8871393,37.7466636 C37.8871393,33.4719926 41.3027214,30.0067421 45.5153363,30.0067421" id="Fill-9" fill="#8BB2BE"></path>
                <path d="M67,22.5 C67,25.5376654 64.5376654,28 61.5,28 C58.4623346,28 56,25.5376654 56,22.5 C56,19.4630083 58.4623346,17 61.5,17 C64.5376654,17 67,19.4630083 67,22.5" id="Fill-11" fill="#A6CDDD"></path>
                <path d="M62.7967968,18.4331189 C63.993994,18.4331189 65.1004338,18.8259397 66,19.4910261 C65.0256924,17.9908568 63.3513514,17 61.4481148,17 C58.4397731,17 56,19.4754487 56,22.528615 C56,24.367423 56.8855522,25.9955977 58.2455789,27 C57.6790123,26.1283441 57.348682,25.0846597 57.348682,23.9624111 C57.348682,20.9085676 59.7877878,18.4331189 62.7967968,18.4331189" id="Fill-13" fill="#8BB2BE"></path>
                <path d="M50,8.49967028 C50,10.4325012 48.433013,12 46.5,12 C44.566987,12 43,10.4325012 43,8.49967028 C43,6.56749882 44.566987,5 46.5,5 C48.433013,5 50,6.56749882 50,8.49967028" id="Fill-15" fill="#A6CDDD"></path>
                <path d="M47.0780287,5.86008959 C47.7969199,5.86008959 48.4603696,6.09573914 49,6.49453068 C48.4160164,5.59443692 47.4106776,5 46.2698152,5 C44.463655,5 43,6.4851547 43,8.31722054 C43,9.42046046 43.5303901,10.3968122 44.3472279,11 C44.0071869,10.4768205 43.8088296,9.85050526 43.8088296,9.17731014 C43.8088296,7.3452443 45.2724846,5.86008959 47.0780287,5.86008959" id="Fill-17" fill="#8BB2BE"></path>
                <path d="M22,47.5 C22,50.5376654 19.5381883,53 16.5003369,53 C13.4624855,53 11,50.5376654 11,47.5 C11,44.4623346 13.4624855,42 16.5003369,42 C19.5381883,42 22,44.4623346 22,47.5" id="Fill-19" fill="#A6CDDD"></path>
                <path d="M17.796583,43.4331189 C18.9945275,43.4331189 20.1010411,43.826617 21,44.4910261 C20.0256273,42.991534 18.351842,42 16.4484784,42 C13.4399359,42 11,44.4754487 11,47.5292922 C11,49.367423 11.8856113,50.9955977 13.2457288,52 C12.6791244,51.1283441 12.348772,50.0846597 12.348772,48.9624111 C12.348772,45.9085676 14.7873732,43.4331189 17.796583,43.4331189" id="Fill-21" fill="#8BB2BE"></path>
                <path d="M39,59.5 C39,62.5376654 36.5376654,65 33.5,65 C30.4623346,65 28,62.5376654 28,59.5 C28,56.4630083 30.4623346,54 33.5,54 C36.5376654,54 39,56.4630083 39,59.5" id="Fill-23" fill="#A6CDDD"></path>
                <path d="M35.7961295,55.4337961 C36.993994,55.4337961 38.1004338,55.826617 39,56.4917034 C38.025025,54.991534 36.3513514,54 34.4481148,54 C31.4397731,54 29,56.476126 29,59.5292922 C29,61.3681002 29.8855522,62.9955977 31.2455789,64 C30.6790123,63.1283441 30.348682,62.0846597 30.348682,60.9624111 C30.348682,57.9085676 32.7877878,55.4337961 35.7961295,55.4337961" id="Fill-25" fill="#8BB2BE"></path>
                <path d="M64,63.4996631 C64,66.5375145 61.5376654,69 58.5,69 C55.4623346,69 53,66.5375145 53,63.4996631 C53,60.4624855 55.4623346,58 58.5,58 C61.5376654,58 64,60.4624855 64,63.4996631" id="Fill-27" fill="#A6CDDD"></path>
                <path d="M59.7972504,59.4331189 C60.9945275,59.4331189 62.1003737,59.8259397 63,60.4910261 C62.0262947,58.9908568 60.351842,58 58.4484784,58 C55.4399359,58 53,60.4754487 53,63.528615 C53,65.367423 53.8856113,66.9949204 55.2457288,68 C54.6791244,67.1283441 54.348772,66.0839824 54.348772,64.9624111 C54.348772,61.9078903 56.7873732,59.4331189 59.7972504,59.4331189" id="Fill-29" fill="#8BB2BE"></path>
                <path d="M72,41 C72,42.6566781 70.6573202,44 69,44 C67.3433219,44 66,42.6566781 66,41 C66,39.3433219 67.3433219,38 69,38 C70.6573202,38 72,39.3433219 72,41" id="Fill-31" fill="#A6CDDD"></path>
                <path d="M69.3982507,38.716568 C69.9970845,38.716568 70.5510204,38.9130178 71,39.2455621 C70.5131195,38.4952663 69.6763848,38 68.7241983,38 C67.2198251,38 66,39.2378698 66,40.764497 C66,41.6840237 66.4425656,42.4976331 67.122449,43 C66.8390671,42.564497 66.6740525,42.0420118 66.6740525,41.4810651 C66.6740525,39.9544379 67.8938776,38.716568 69.3982507,38.716568" id="Fill-33" fill="#8BB2BE"></path>
                <path d="M27,16.999679 C27,18.6568218 25.6568218,20 24.000321,20 C22.3438202,20 21,18.6568218 21,16.999679 C21,15.3431782 22.3438202,14 24.000321,14 C25.6568218,14 27,15.3431782 27,16.999679" id="Fill-35" fill="#A6CDDD"></path>
                <path d="M25.3984375,14.716568 C25.9966185,14.716568 26.5504897,14.9130178 27,15.2449704 C26.5125933,14.4952663 25.6759562,14 24.7244636,14 C23.2202659,14 22,15.2372781 22,16.7639053 C22,17.683432 22.442514,18.4976331 23.1229011,19 C22.8395522,18.5639053 22.6739739,18.0420118 22.6739739,17.4810651 C22.6739739,15.9544379 23.8936567,14.716568 25.3984375,14.716568" id="Fill-37" fill="#8BB2BE"></path>
                <path d="M10,26 C10,27.1043195 9.10413695,28 7.99959242,28 C6.89504789,28 6,27.1043195 6,26 C6,24.8956805 6.89504789,24 7.99959242,24 C9.10413695,24 10,24.8956805 10,26" id="Fill-39" fill="#A6CDDD"></path>
                <path d="M8.03885435,24.4305024 C8.39853464,24.4305024 8.73023979,24.5480964 9,24.7474656 C8.70759325,24.2980401 8.205373,24 7.63454707,24 C6.73201599,24 6,24.7427349 6,25.6584816 C6,26.210633 6.26576377,26.6985808 6.67340142,27 C6.5035524,26.7384546 6.40430728,26.4255463 6.40430728,26.088984 C6.40430728,25.1725614 7.13632327,24.4305024 8.03885435,24.4305024" id="Fill-41" fill="#8BB2BE"></path>
                <path d="M79,51 C79,52.1043195 78.1043195,53 77,53 C75.8948655,53 75,52.1043195 75,51 C75,49.8956805 75.8948655,49 77,49 C78.1043195,49 79,49.8956805 79,51" id="Fill-43" fill="#A6CDDD"></path>
                <path d="M77.0395204,49.4298265 C77.3985346,49.4298265 77.7302398,49.5480964 78,49.7474656 C77.7082593,49.2973643 77.2060391,49 76.6352131,49 C75.732016,49 75,49.7427349 75,50.6584816 C75,51.2099572 75.2657638,51.6979049 75.6740675,52 C75.5035524,51.7384546 75.4049734,51.4248705 75.4049734,51.0883082 C75.4049734,50.1725614 76.1369893,49.4298265 77.0395204,49.4298265" id="Fill-45" fill="#8BB2BE"></path>
                <path d="M77,30 C77,31.1043195 76.1043195,32 75,32 C73.8948655,32 73,31.1043195 73,30 C73,28.8956805 73.8948655,28 75,28 C76.1043195,28 77,28.8956805 77,30" id="Fill-47" fill="#A6CDDD"></path>
                <path d="M76.0395204,29.4299234 C76.3985346,29.4299234 76.7309059,29.5475439 77,29.7469581 C76.7082593,29.2967553 76.2060391,29 75.6352131,29 C74.732016,29 74,29.7422262 74,30.6588553 C74,31.2097792 74.2664298,31.6985128 74.6740675,32 C74.5042185,31.7383957 74.4049734,31.4254169 74.4049734,31.0887787 C74.4049734,30.1721496 75.1369893,29.4299234 76.0395204,29.4299234" id="Fill-49" fill="#8BB2BE"></path>
                <path d="M16,61 C16,62.1043195 15.1043195,63 14,63 C12.8948655,63 12,62.1043195 12,61 C12,59.8956805 12.8948655,59 14,59 C15.1043195,59 16,59.8956805 16,61" id="Fill-51" fill="#A6CDDD"></path>
                <path d="M15.0395204,59.4305024 C15.3985346,59.4305024 15.7302398,59.5480964 16,59.7474656 C15.7082593,59.2973643 15.2060391,59 14.6352131,59 C13.732016,59 13,59.7427349 13,60.6584816 C13,61.210633 13.2657638,61.6979049 13.6740675,62 C13.5035524,61.7384546 13.4049734,61.4255463 13.4049734,61.0883082 C13.4049734,60.1732372 14.1369893,59.4305024 15.0395204,59.4305024" id="Fill-53" fill="#8BB2BE"></path>
                <path d="M31,71 C31,72.1043195 30.1041369,73 28.9995924,73 C27.8950479,73 27,72.1043195 27,71 C27,69.8956805 27.8950479,69 28.9995924,69 C30.1041369,69 31,69.8956805 31,71" id="Fill-55" fill="#A6CDDD"></path>
                <path d="M29.0388544,70.4305024 C29.3985346,70.4305024 29.7302398,70.5480964 30,70.7474656 C29.7075933,70.2973643 29.205373,70 28.6345471,70 C27.732016,70 27,70.7427349 27,71.6584816 C27,72.2099572 27.2657638,72.6979049 27.6734014,73 C27.5035524,72.7384546 27.4049734,72.4248705 27.4049734,72.0883082 C27.4049734,71.1725614 28.1369893,70.4305024 29.0388544,70.4305024" id="Fill-57" fill="#8BB2BE"></path>
            </g>
        </g>
    </g>
</svg>