<?xml version="1.0" encoding="UTF-8"?>
<svg width="40px" height="59px" viewBox="0 0 40 59" version="1.1" xmlns="http://www.w3.org/2000/svg" xmlns:xlink="http://www.w3.org/1999/xlink">
    <!-- Generator: Sketch 52.6 (67491) - http://www.bohemiancoding.com/sketch -->
    <title>ship</title>
    <desc>Created with Sketch.</desc>
    <defs>
        <polyline id="path-1" points="2.92968 5.88744 2.57136 3.38064 0.06456 3.02232 2.57136 2.664 2.92968 0.15696 3.288 2.664 5.79504 3.02232 3.288 3.38064 2.92968 5.88744"></polyline>
        <path d="M0.933555556,1.89022222 C0.443111111,1.89022222 0.0457777778,1.49266667 0.0457777778,1.00266667 C0.0457777778,0.512222222 0.443111111,0.114666667 0.933555556,0.114666667 C1.424,0.114666667 1.82111111,0.512222222 1.82111111,1.00266667 C1.82111111,1.49266667 1.424,1.89022222 0.933555556,1.89022222" id="path-3"></path>
        <path d="M0.171714286,13.9647667 C0.171714286,13.8373667 0.172857143,13.7097333 0.175428571,13.5821 C0.177142857,13.1541667 0.178285714,12.7262333 0.18,12.2997 C0.19,11.8736333 0.214,11.4492 0.230285714,11.0287333 C0.253428571,10.1873333 0.328571429,9.36156667 0.392,8.5631 C0.456571429,7.7651 0.559428571,6.99533333 0.643428571,6.2671 C0.754,5.53933333 0.839142857,4.8517 0.959428571,4.22053333 C1.39114286,1.69026667 1.89714286,0.0415333333 1.89714286,0.0415333333 C1.89714286,0.0415333333 1.39114286,1.69026667 0.959428571,4.22053333 C0.839142857,4.8517 0.754,5.53933333 0.643428571,6.2671 C0.559428571,6.99533333 0.456571429,7.7651 0.392,8.5631 C0.328571429,9.36156667 0.253428571,10.1873333 0.230285714,11.0287333 C0.214,11.4492 0.19,11.8736333 0.18,12.2997 C0.178285714,12.7262333 0.177142857,13.1541667 0.175428571,13.5821 C0.172857143,13.6980667 0.171714286,13.8138 0.171714286,13.9295333 L0.171714286,13.9647667" id="path-5"></path>
    </defs>
    <g id="Page-1" stroke="none" stroke-width="1" fill="none" fill-rule="evenodd">
        <g id="test-task" transform="translate(-700.000000, -378.000000)">
            <g id="ship" transform="translate(692.000000, 362.000000)">
                <g id="Group-36" transform="translate(5.000000, 32.000000)">
                    <mask id="mask-2" fill="white">
                        <use xlink:href="#path-1"></use>
                    </mask>
                    <g id="Clip-35"></g>
                    <polyline id="Fill-34" mask="url(#mask-2)" points="2.92968 5.88744 2.57136 3.38064 0.06456 3.02232 2.57136 2.664 2.92968 0.15696 3.288 2.664 5.79504 3.02232 3.288 3.38064 2.92968 5.88744"></polyline>
                </g>
                <g id="Group-102" transform="translate(36.000000, 15.000000)">
                    <mask id="mask-4" fill="white">
                        <use xlink:href="#path-3"></use>
                    </mask>
                    <g id="Clip-101"></g>
                    <path d="M0.933555556,1.89022222 C0.443111111,1.89022222 0.0457777778,1.49266667 0.0457777778,1.00266667 C0.0457777778,0.512222222 0.443111111,0.114666667 0.933555556,0.114666667 C1.424,0.114666667 1.82111111,0.512222222 1.82111111,1.00266667 C1.82111111,1.49266667 1.424,1.89022222 0.933555556,1.89022222" id="Fill-100" mask="url(#mask-4)"></path>
                </g>
                <polyline id="Fill-191" fill="#21A3C6" points="18 45 9 52.0080938 9 61 18 56.7336892 18 45"></polyline>
                <polyline id="Fill-192" fill="#21A3C6" points="38 45 47 52.0080938 47 61 38 56.7336892 38 45"></polyline>
                <polyline id="Fill-193" fill="#27E2EB" points="17 51 8 58.0102686 8 67 17 62.7333643 17 51"></polyline>
                <polyline id="Fill-194" fill="#27E2EB" points="39 51 48 58.0102686 48 67 39 62.7333643 39 51"></polyline>
                <path d="M37.7643766,32.3212079 C37.0751525,30.4314704 36.3174493,28.6445603 35.5056719,26.9954387 C34.6969972,25.3458601 33.8442209,23.8342986 33.0049632,22.494116 C32.1626029,21.1539334 31.3499391,19.9853581 30.5979979,19.0238085 C30.4125057,18.7831926 30.2374295,18.5556015 30.072326,18.3412636 C29.8948121,18.1266973 29.7283789,17.9262983 29.5736913,17.7396096 C29.2698565,17.3657752 28.9844158,17.0479246 28.7512764,16.7899423 C28.5274448,16.532417 28.3213424,16.335217 28.1961297,16.20177 C28.0667062,16.06878 28,16 28,16 L27.9205275,67.141 C31.6767531,67.282 34.9373779,67.3031006 38.7609863,67.5181885 C39.1581212,66.2540981 39.2467623,65.4380004 39.5545861,64.107415 C40.0315026,62.0451561 40.4051462,59.9150312 40.6429396,57.7504021 C40.8873814,55.5848589 41.0023998,53.3848114 40.9999621,51.1854495 C40.9922055,46.7869541 40.4931275,42.3891442 39.5209006,38.2657691 C39.038887,36.2039672 38.4462873,34.2111739 37.7643766,32.3212079 Z" id="Fill-196" fill="#AC2B1F"></path>
                <path d="M24.843849,32.3212079 C24.154625,30.4314704 23.3969218,28.6445603 22.5851444,26.9954387 C21.7764696,25.3458601 20.9236934,23.8342986 20.0844357,22.494116 C19.2420754,21.1539334 18.4294116,19.9853581 17.6774704,19.0238085 C17.4919782,18.7831926 17.316902,18.5556015 17.1517985,18.3412636 C16.9742845,18.1266973 16.8078513,17.9262983 16.6531638,17.7396096 C16.349329,17.3657752 16.0638883,17.0479246 15.8307488,16.7899423 C15.6069172,16.532417 15.4008149,16.335217 15.2756022,16.20177 C15.1461787,16.06878 15.0794725,16 15.0794725,16 L15,67.141 C18.7562256,67.282 22.0168504,67.3031006 25.8404588,67.5181885 C26.2375937,66.2540981 26.3262348,65.4380004 26.6340586,64.107415 C27.1109751,62.0451561 27.4846187,59.9150312 27.7224121,57.7504021 C27.9668539,55.5848589 28.0818723,53.3848114 28.0794346,51.1854495 C28.071678,46.7869541 27.5726,42.3891442 26.6003731,38.2657691 C26.1183595,36.2039672 25.5257598,34.2111739 24.843849,32.3212079 Z" id="Fill-196-Copy" fill="#FF5650" transform="translate(21.539736, 41.759094) scale(-1, 1) translate(-21.539736, -41.759094) "></path>
                <path d="M28.7397873,50 C28.7397873,50 28.8103189,50.0977513 28.922048,50.2804039 C29.0376596,50.4637448 29.187135,50.7322166 29.3627093,51.0736576 C29.7078185,51.757687 30.1118119,52.7338229 30.4258613,53.9061496 C30.5850429,54.4924277 30.7267534,55.1271225 30.8313646,55.7987609 C30.940074,56.4701698 31.01039,57.1782928 30.9987425,57.9109683 C30.9881736,58.6429555 30.8777386,59.3999541 30.7500482,60.1688848 C30.6210637,60.937586 30.4942361,61.7195961 30.4185277,62.4997705 C30.2679738,64.062414 30.1029685,65.6252868 29.9168253,67.0908674 C29.8191162,67.823084 29.7248583,68.531207 29.6349142,69.202157 C29.5404406,69.8735659 29.4504965,70.5084901 29.3681017,71.0943093 C29.2872167,71.6801285 29.1959785,72.2170721 29.1243683,72.6934374 C29.0525424,73.1693437 28.9854619,73.5844424 28.9259305,73.9258834 C28.8075149,74.6092244 28.7397873,75 28.7397873,75 L28.2603012,75 C28.2603012,75 28.1923578,74.6092244 28.0737265,73.9258834 C28.0141952,73.5844424 27.9477617,73.1693437 27.8750731,72.6934374 C27.8036786,72.2170721 27.7130874,71.6801285 27.6317711,71.0943093 C27.5491606,70.5084901 27.4592165,69.8735659 27.3645272,69.202157 C27.2750145,68.531207 27.1805408,67.823084 27.0828318,67.0908674 C26.8971199,65.6252868 26.7318989,64.062414 26.5815607,62.5002295 C26.5049896,61.7191372 26.3785934,60.9385039 26.2498245,60.1688848 C26.1219184,59.3999541 26.0119149,58.6434144 26.0013459,57.9109683 C25.9892671,57.1787517 26.0595831,56.4701698 26.1682925,55.7992198 C26.2735508,55.127352 26.4146141,54.4924277 26.5744428,53.9056907 C26.8878451,52.7338229 27.2920542,51.757687 27.6363006,51.0736576 C27.8127377,50.7322166 27.9619974,50.4637448 28.0773933,50.2804039 C28.1895538,50.0982102 28.2598698,50 28.2598698,50 L28.7397873,50" id="Fill-197" fill="#21A3C6"></path>
                <path d="M28,47 C24.1142662,46.6826816 21.0344708,43.4811146 21.0002808,39.562865 C20.9660908,35.6027053 24.0582577,32.3208663 28,32 L28,47" id="Fill-198" fill="#944D47"></path>
                <path d="M28.6142247,47 C28.4076694,47 28.2026376,46.9913815 28,46.9743654 L28,32.0256346 C28.1819603,32.0103864 28.3658794,32.0017679 28.5515399,32.000221 C28.5730878,32 28.5942004,32 28.6157483,32 C32.6584876,32 35.9655502,35.3218911 35.9997222,39.435582 C36.0347648,43.5722557 32.7501207,46.9653049 28.6777802,46.999779 C28.65645,47 28.635555,47 28.6142247,47" id="Fill-199" fill="#68433D"></path>
                <path d="M28.4363533,30.0002717 C24.3011982,30.0351876 20.9649202,33.4277703 21.0002785,37.5630882 C21.0358578,41.699732 24.4291511,45.0350793 28.5645272,44.9997215 C32.6996822,44.9652476 36.0352973,41.5726649 35.999718,37.436242 C35.9650226,33.3000402 32.5719503,29.9653559 28.4363533,30.0002717" id="Fill-200" fill="#0C5664"></path>
                <path d="M28.4536981,32.0002147 C25.4208877,32.0247059 22.9752384,34.5134784 23.0001892,37.5461889 C23.0265392,40.5812318 25.5141619,43.0256869 28.5474387,42.9997962 C31.5793164,42.9736723 34.026598,40.4872322 33.9997817,37.4524226 C33.9743645,34.4201786 31.4853426,31.9736243 28.4536981,32.0002147" id="Fill-201" fill="#3ED7FF"></path>
                <path d="M26,42.5563611 C26.7188175,42.8461096 27.5139866,43.0066163 28.3502311,42.9997909 C31.4917653,42.9751314 34.02756,40.6280799 33.9997738,37.7634 C33.9898674,36.7450967 33.6564328,35.7981296 33.0912852,35 C32.9878721,35.0752994 32.883251,35.1494979 32.7803211,35.2252377 C30.3037232,37.0597249 27.1885254,39.5952451 26,42.5563611" id="Fill-202" fill="#75C5E1"></path>
                <path d="M31,25.00012 C31,26.657064 29.6571714,28 27.99988,28 C26.3428286,28 25,26.657064 25,25.00012 C25,23.342936 26.3428286,22 27.99988,22 C29.6571714,22 31,23.342936 31,25.00012" id="Fill-203" fill="#0C5664"></path>
                <path d="M30,25.4998991 C30,26.3281324 29.3283793,27 28.4997983,27 C27.671419,27 27,26.3281324 27,25.4998991 C27,24.6714641 27.671419,24 28.4997983,24 C29.3283793,24 30,24.6714641 30,25.4998991" id="Fill-204" fill="#00A2CD"></path>
                <g id="Group-207" transform="translate(17.000000, 39.000000)">
                    <mask id="mask-6" fill="white">
                        <use xlink:href="#path-5"></use>
                    </mask>
                    <g id="Clip-206"></g>
                    <path d="M0.171714286,13.9647667 C0.171714286,13.8373667 0.172857143,13.7097333 0.175428571,13.5821 C0.177142857,13.1541667 0.178285714,12.7262333 0.18,12.2997 C0.19,11.8736333 0.214,11.4492 0.230285714,11.0287333 C0.253428571,10.1873333 0.328571429,9.36156667 0.392,8.5631 C0.456571429,7.7651 0.559428571,6.99533333 0.643428571,6.2671 C0.754,5.53933333 0.839142857,4.8517 0.959428571,4.22053333 C1.39114286,1.69026667 1.89714286,0.0415333333 1.89714286,0.0415333333 C1.89714286,0.0415333333 1.39114286,1.69026667 0.959428571,4.22053333 C0.839142857,4.8517 0.754,5.53933333 0.643428571,6.2671 C0.559428571,6.99533333 0.456571429,7.7651 0.392,8.5631 C0.328571429,9.36156667 0.253428571,10.1873333 0.230285714,11.0287333 C0.214,11.4492 0.19,11.8736333 0.18,12.2997 C0.178285714,12.7262333 0.177142857,13.1541667 0.175428571,13.5821 C0.172857143,13.6980667 0.171714286,13.8138 0.171714286,13.9295333 L0.171714286,13.9647667" id="Fill-205" mask="url(#mask-6)"></path>
                </g>
            </g>
        </g>
    </g>
</svg>